<?xml version="1.0" encoding="UTF-8" standalone="no"?>
<!DOCTYPE svg PUBLIC "-//W3C//DTD SVG 1.1//EN" "http://www.w3.org/Graphics/SVG/1.1/DTD/svg11.dtd">
<svg width="100%" height="100%" viewBox="0 0 918 251" version="1.1" xmlns="http://www.w3.org/2000/svg" xmlns:xlink="http://www.w3.org/1999/xlink" xml:space="preserve" xmlns:serif="http://www.serif.com/" style="fill-rule:evenodd;clip-rule:evenodd;stroke-linejoin:round;stroke-miterlimit:2;">
    <g transform="matrix(1,0,0,1,-19062.264938,-8296.045124)">
        <g transform="matrix(0.435429,0,0,0.307879,12912.129674,5483.351278)">
            <g transform="matrix(1.431133,0,0,2.024031,2165.636886,1175.992083)">
                <g transform="matrix(0.610247,0,0,0.610247,6131.461779,547.570716)">
                    <path d="M3908.765,5613.645C3907.868,5609.688 3907.416,5605.642 3907.416,5601.584C3907.416,5571.458 3931.874,5547 3962,5547C3992.126,5547 4016.584,5571.458 4016.584,5601.584C4016.584,5605.642 4016.132,5609.688 4015.235,5613.645L3977.619,5779.671C3975.874,5787.377 3980.289,5795.144 3987.803,5797.585C3995.318,5800.027 4003.455,5796.339 4006.572,5789.078L4073.728,5632.651C4075.329,5628.922 4077.34,5625.383 4079.726,5622.1C4097.433,5597.728 4131.597,5592.317 4155.969,5610.024C4180.341,5627.732 4185.752,5661.895 4168.045,5686.268C4165.66,5689.551 4162.916,5692.558 4159.864,5695.232L4031.845,5807.44C4025.903,5812.648 4024.91,5821.527 4029.554,5827.919C4034.198,5834.311 4042.949,5836.111 4049.739,5832.069L4196.015,5744.989C4199.501,5742.914 4203.209,5741.233 4207.068,5739.979C4235.72,5730.67 4266.539,5746.373 4275.849,5775.024C4285.158,5803.676 4269.455,5834.495 4240.803,5843.805C4236.944,5845.059 4232.957,5845.878 4228.916,5846.248L4059.392,5861.779C4051.524,5862.5 4045.501,5869.099 4045.501,5877C4045.501,5884.901 4051.524,5891.5 4059.392,5892.221L4228.916,5907.752C4232.957,5908.122 4236.944,5908.941 4240.803,5910.195C4269.455,5919.505 4285.158,5950.324 4275.849,5978.976C4266.539,6007.627 4235.72,6023.33 4207.068,6014.021C4203.209,6012.767 4199.501,6011.086 4196.015,6009.011L4049.739,5921.931C4042.949,5917.889 4034.198,5919.689 4029.554,5926.081C4024.91,5932.473 4025.903,5941.352 4031.845,5946.56L4159.864,6058.768C4162.916,6061.442 4165.66,6064.449 4168.045,6067.732C4185.752,6092.105 4180.341,6126.268 4155.969,6143.976C4131.597,6161.683 4097.433,6156.272 4079.726,6131.9C4077.34,6128.617 4075.329,6125.078 4073.728,6121.349L4006.572,5964.922C4003.455,5957.661 3995.318,5953.973 3987.803,5956.415C3980.289,5958.856 3975.874,5966.623 3977.619,5974.329L4015.235,6140.355C4016.132,6144.312 4016.584,6148.358 4016.584,6152.416C4016.584,6182.542 3992.126,6207 3962,6207C3931.874,6207 3907.416,6182.542 3907.416,6152.416C3907.416,6148.358 3907.868,6144.312 3908.765,6140.355L3946.381,5974.329C3948.126,5966.623 3943.711,5958.856 3936.197,5956.415C3928.682,5953.973 3920.545,5957.661 3917.428,5964.922L3850.272,6121.349C3848.671,6125.078 3846.66,6128.617 3844.274,6131.9C3826.567,6156.272 3792.403,6161.683 3768.031,6143.976C3743.659,6126.268 3738.248,6092.105 3755.955,6067.732C3758.34,6064.449 3761.084,6061.442 3764.136,6058.768L3892.155,5946.56C3898.097,5941.352 3899.09,5932.473 3894.446,5926.081C3889.802,5919.689 3881.051,5917.889 3874.261,5921.931L3727.985,6009.011C3724.499,6011.086 3720.791,6012.767 3716.932,6014.021C3688.28,6023.33 3657.461,6007.627 3648.151,5978.976C3638.842,5950.324 3654.545,5919.505 3683.197,5910.195C3687.056,5908.941 3691.043,5908.122 3695.084,5907.752L3864.608,5892.221C3872.476,5891.5 3878.499,5884.901 3878.499,5877C3878.499,5869.099 3872.476,5862.5 3864.608,5861.779L3695.084,5846.248C3691.043,5845.878 3687.056,5845.059 3683.197,5843.805C3654.545,5834.495 3638.842,5803.676 3648.151,5775.024C3657.461,5746.373 3688.28,5730.67 3716.932,5739.979C3720.791,5741.233 3724.499,5742.914 3727.985,5744.989L3874.261,5832.069C3881.051,5836.111 3889.802,5834.311 3894.446,5827.919C3899.09,5821.527 3898.097,5812.648 3892.155,5807.44L3764.136,5695.232C3761.084,5692.558 3758.34,5689.551 3755.955,5686.268C3738.248,5661.895 3743.659,5627.732 3768.031,5610.024C3792.403,5592.317 3826.567,5597.728 3844.274,5622.1C3846.66,5625.383 3848.671,5628.922 3850.272,5632.651L3917.428,5789.078C3920.545,5796.339 3928.682,5800.027 3936.197,5797.585C3943.711,5795.144 3948.126,5787.377 3946.381,5779.671L3908.765,5613.645Z" style="fill:white;"/>
                </g>
                <g transform="matrix(1.220831,0,0,0.651816,5116.078959,3664.816798)">
                    <path d="M3114.866,550.023C3126.123,550.023 3136.429,552.969 3145.783,558.86C3155.137,564.752 3163.373,573.279 3170.492,584.442C3177.611,595.605 3183.447,609.093 3187.999,624.907C3192.552,640.721 3195.491,658.551 3196.815,678.396L3165.774,678.396C3164.78,666.613 3162.877,655.76 3160.062,645.838C3157.248,635.915 3153.647,627.388 3149.26,620.256C3144.872,613.124 3139.74,607.62 3133.863,603.744C3127.986,599.868 3121.571,597.93 3114.617,597.93C3105.677,597.93 3097.855,601.419 3091.15,608.396C3084.445,615.372 3078.857,624.52 3074.387,635.838C3069.917,647.155 3066.565,660.101 3064.33,674.675C3062.095,689.249 3060.978,704.287 3060.978,719.791C3060.978,734.985 3062.095,749.869 3064.33,764.443C3066.565,779.016 3069.917,792.04 3074.387,803.513C3078.857,814.986 3084.445,824.21 3091.15,831.187C3097.855,838.164 3105.677,841.652 3114.617,841.652C3121.571,841.652 3127.986,839.714 3133.863,835.838C3139.74,831.962 3144.872,826.459 3149.26,819.327C3153.647,812.195 3157.248,803.668 3160.062,793.745C3162.877,783.823 3164.78,772.97 3165.774,761.187L3196.815,761.187C3195.491,781.032 3192.552,798.862 3187.999,814.676C3183.447,830.49 3177.611,843.978 3170.492,855.141C3163.373,866.304 3155.137,874.831 3145.783,880.722C3136.429,886.614 3126.123,889.56 3114.866,889.56C3101.456,889.56 3089.536,885.141 3079.106,876.304C3068.676,867.467 3059.819,855.373 3052.534,840.025C3045.25,824.676 3039.704,806.691 3035.896,786.071C3032.088,765.451 3030.184,743.357 3030.184,719.791C3030.184,696.225 3032.088,674.132 3035.896,653.512C3039.704,632.892 3045.25,614.907 3052.534,599.558C3059.819,584.209 3068.676,572.116 3079.106,563.279C3089.536,554.442 3101.456,550.023 3114.866,550.023Z" style="fill:white;"/>
                    <path d="M3282.242,679.326C3275.95,679.326 3270.322,681.652 3265.355,686.303C3260.388,690.954 3256.208,697.078 3252.814,704.675C3249.42,712.272 3246.813,721.109 3244.992,731.187C3243.171,741.264 3242.26,751.73 3242.26,762.582C3242.26,773.435 3243.171,783.9 3244.992,793.978C3246.813,804.055 3249.42,812.893 3252.814,820.49C3256.208,828.086 3260.388,834.211 3265.355,838.862C3270.322,843.513 3275.95,845.839 3282.242,845.839C3288.533,845.839 3294.161,843.513 3299.128,838.862C3304.095,834.211 3308.275,828.009 3311.669,820.257C3315.063,812.505 3317.67,803.59 3319.491,793.513C3321.312,783.435 3322.223,773.125 3322.223,762.582C3322.223,751.73 3321.312,741.264 3319.491,731.187C3317.67,721.109 3315.063,712.272 3311.669,704.675C3308.275,697.078 3304.095,690.954 3299.128,686.303C3294.161,681.652 3288.533,679.326 3282.242,679.326ZM3282.242,636.07C3292.009,636.07 3301.073,639.248 3309.434,645.605C3317.794,651.962 3324.996,660.799 3331.039,672.117C3337.082,683.435 3341.8,696.768 3345.194,712.117C3348.588,727.466 3350.285,744.288 3350.285,762.582C3350.285,780.567 3348.588,797.311 3345.194,812.815C3341.8,828.319 3337.082,841.73 3331.039,853.048C3324.996,864.366 3317.836,873.28 3309.558,879.792C3301.28,886.304 3292.175,889.56 3282.242,889.56C3272.474,889.56 3263.451,886.381 3255.173,880.025C3246.896,873.668 3239.735,864.831 3233.693,853.513C3227.65,842.195 3222.932,828.784 3219.538,813.28C3216.144,797.776 3214.447,780.877 3214.447,762.582C3214.447,744.288 3216.144,727.388 3219.538,711.884C3222.932,696.38 3227.65,683.047 3233.693,671.884C3239.735,660.721 3246.896,651.962 3255.173,645.605C3263.451,639.248 3272.474,636.07 3282.242,636.07Z" style="fill:white;"/>
                    <path d="M3435.959,636.07L3439.436,636.07C3440.429,636.07 3441.34,636.225 3442.168,636.535C3443.161,636.535 3443.989,636.69 3444.651,637L3444.651,686.768C3443.823,686.458 3442.995,686.148 3442.168,685.838C3441.34,685.838 3440.429,685.76 3439.436,685.605C3438.443,685.45 3437.366,685.373 3436.208,685.373C3430.91,685.373 3426.026,687.466 3421.556,691.652C3417.086,695.838 3413.195,701.807 3409.884,709.559C3406.573,717.311 3404.007,726.768 3402.186,737.931C3400.365,749.094 3399.454,761.652 3399.454,775.606L3399.454,882.583L3370.4,882.583L3370.4,643.047L3395.481,643.047L3398.213,691.419C3401.027,675.295 3405.745,662.039 3412.368,651.652C3418.99,641.264 3426.854,636.07 3435.959,636.07Z" style="fill:white;"/>
                    <path d="M3514.681,677.466C3509.217,677.466 3504.333,679.094 3500.029,682.349C3495.725,685.605 3492.041,689.946 3488.978,695.373C3485.915,700.799 3483.432,707.001 3481.528,713.977C3479.624,720.954 3478.258,728.164 3477.431,735.605L3551.185,735.605C3549.364,718.861 3545.432,704.985 3539.39,693.977C3533.347,682.97 3525.111,677.466 3514.681,677.466ZM3514.681,636.07C3528.918,636.07 3541.045,642.504 3551.061,655.373C3561.077,668.241 3568.486,685.373 3573.287,706.768C3577.922,728.474 3579.495,752.35 3578.005,778.396L3476.437,778.396C3476.934,787.699 3478.134,796.691 3480.038,805.373C3481.942,814.055 3484.591,821.652 3487.985,828.164C3491.379,834.676 3495.393,839.869 3500.029,843.745C3504.664,847.621 3509.879,849.559 3515.674,849.559C3523.786,849.559 3530.946,846.381 3537.155,840.025C3543.363,833.668 3548.04,823.978 3551.185,810.955L3578.005,810.955C3575.853,823.358 3572.79,834.443 3568.817,844.211C3564.844,853.978 3560.167,862.273 3554.786,869.094C3549.406,875.916 3543.487,881.032 3537.03,884.443C3530.574,887.854 3523.869,889.56 3516.916,889.56C3507.313,889.56 3498.332,886.614 3489.971,880.722C3481.611,874.831 3474.409,866.381 3468.367,855.373C3462.324,844.366 3457.564,831.032 3454.087,815.373C3450.611,799.714 3448.872,782.117 3448.872,762.582C3448.872,744.908 3450.528,728.396 3453.839,713.047C3457.15,697.698 3461.744,684.287 3467.622,672.814C3473.499,661.342 3480.452,652.349 3488.481,645.838C3496.511,639.326 3505.244,636.07 3514.681,636.07Z" style="fill:white;"/>
                    <path d="M3743.146,557L3808.706,882.583L3775.429,882.583L3759.288,801.652L3690.003,801.652L3673.862,882.583L3640.585,882.583L3706.393,557L3743.146,557ZM3697.701,755.606L3751.59,755.606L3724.77,617L3697.701,755.606Z" style="fill:white;"/>
                    <rect x="3828.821" y="557" width="30.545" height="325.583" style="fill:white;"/>
                </g>
            </g>
        </g>
    </g>
</svg>
