<svg xmlns="http://www.w3.org/2000/svg" viewBox="0 0 256 256" aria-hidden="true">
  <rect width="256" height="256" rx="64" ry="64" fill="#ffffff" />
  <g transform="translate(30.5 26.5)">
    <g transform="matrix(1,0,0,1,-20850.696462,-8170.283195)">
      <g transform="matrix(2.105263,0,0,2.105263,-14885.802709,-8682.008855)">
        <g transform="matrix(0.145998,0,0,0.145998,16442.605541,7194.987282)">
          <path
            d="M3908.765,5613.645C3907.868,5609.688 3907.416,5605.642 3907.416,5601.584C3907.416,5571.458 3931.874,5547 3962,5547C3992.126,5547 4016.584,5571.458 4016.584,5601.584C4016.584,5605.642 4016.132,5609.688 4015.235,5613.645L3977.619,5779.671C3975.874,5787.377 3980.289,5795.144 3987.803,5797.585C3995.318,5800.027 4003.455,5796.339 4006.572,5789.078L4073.728,5632.651C4075.329,5628.922 4077.34,5625.383 4079.726,5622.1C4097.433,5597.728 4131.597,5592.317 4155.969,5610.024C4180.341,5627.732 4185.752,5661.895 4168.045,5686.268C4165.66,5689.551 4162.916,5692.558 4159.864,5695.232L4031.845,5807.44C4025.903,5812.648 4024.91,5821.527 4029.554,5827.919C4034.198,5834.311 4042.949,5836.111 4049.739,5832.069L4196.015,5744.989C4199.501,5742.914 4203.209,5741.233 4207.068,5739.979C4235.72,5730.67 4266.539,5746.373 4275.849,5775.024C4285.158,5803.676 4269.455,5834.495 4240.803,5843.805C4236.944,5845.059 4232.957,5845.878 4228.916,5846.248L4059.392,5861.779C4051.524,5862.5 4045.501,5869.099 4045.501,5877C4045.501,5884.901 4051.524,5891.5 4059.392,5892.221L4228.916,5907.752C4232.957,5908.122 4236.944,5908.941 4240.803,5910.195C4269.455,5919.505 4285.158,5950.324 4275.849,5978.976C4266.539,6007.627 4235.72,6023.33 4207.068,6014.021C4203.209,6012.767 4199.501,6011.086 4196.015,6009.011L4049.739,5921.931C4042.949,5917.889 4034.198,5919.689 4029.554,5926.081C4024.91,5932.473 4025.903,5941.352 4031.845,5946.56L4159.864,6058.768C4162.916,6061.442 4165.66,6064.449 4168.045,6067.732C4185.752,6092.105 4180.341,6126.268 4155.969,6143.976C4131.597,6161.683 4097.433,6156.272 4079.726,6131.9C4077.34,6128.617 4075.329,6125.078 4073.728,6121.349L4006.572,5964.922C4003.455,5957.661 3995.318,5953.973 3987.803,5956.415C3980.289,5958.856 3975.874,5966.623 3977.619,5974.329L4015.235,6140.355C4016.132,6144.312 4016.584,6148.358 4016.584,6152.416C4016.584,6182.542 3992.126,6207 3962,6207C3931.874,6207 3907.416,6182.542 3907.416,6152.416C3907.416,6148.358 3907.868,6144.312 3908.765,6140.355L3946.381,5974.329C3948.126,5966.623 3943.711,5958.856 3936.197,5956.415C3928.682,5953.973 3920.545,5957.661 3917.428,5964.922L3850.272,6121.349C3848.671,6125.078 3846.66,6128.617 3844.274,6131.9C3826.567,6156.272 3792.403,6161.683 3768.031,6143.976C3743.659,6126.268 3738.248,6092.105 3755.955,6067.732C3758.34,6064.449 3761.084,6061.442 3764.136,6058.768L3892.155,5946.56C3898.097,5941.352 3899.09,5932.473 3894.446,5926.081C3889.802,5919.689 3881.051,5917.889 3874.261,5921.931L3727.985,6009.011C3724.499,6011.086 3720.791,6012.767 3716.932,6014.021C3688.28,6023.33 3657.461,6007.627 3648.151,5978.976C3638.842,5950.324 3654.545,5919.505 3683.197,5910.195C3687.056,5908.941 3691.043,5908.122 3695.084,5907.752L3864.608,5892.221C3872.476,5891.5 3878.499,5884.901 3878.499,5877C3878.499,5869.099 3872.476,5862.5 3864.608,5861.779L3695.084,5846.248C3691.043,5845.878 3687.056,5845.059 3683.197,5843.805C3654.545,5834.495 3638.842,5803.676 3648.151,5775.024C3657.461,5746.373 3688.28,5730.67 3716.932,5739.979C3720.791,5741.233 3724.499,5742.914 3727.985,5744.989L3874.261,5832.069C3881.051,5836.111 3889.802,5834.311 3894.446,5827.919C3899.09,5821.527 3898.097,5812.648 3892.155,5807.44L3764.136,5695.232C3761.084,5692.558 3758.34,5689.551 3755.955,5686.268C3738.248,5661.895 3743.659,5627.732 3768.031,5610.024C3792.403,5592.317 3826.567,5597.728 3844.274,5622.1C3846.66,5625.383 3848.671,5628.922 3850.272,5632.651L3917.428,5789.078C3920.545,5796.339 3928.682,5800.027 3936.197,5797.585C3943.711,5795.144 3948.126,5787.377 3946.381,5779.671L3908.765,5613.645Z"
            fill="#000000"
          />
        </g>
      </g>
    </g>
  </g>
</svg>
